<svg width="16" height="17" viewBox="0 0 16 17" fill="none" xmlns="http://www.w3.org/2000/svg">
<path d="M0 5C0 2.79086 1.79086 1 4 1H12C14.2091 1 16 2.79086 16 5V13C16 15.2091 14.2091 17 12 17H4C1.79086 17 0 15.2091 0 13V5Z" fill="#E43539"/>
<path d="M5.48354 9.63611L7.80108 11.8132C7.91288 11.9182 8.08708 11.9182 8.19888 11.8132L10.5164 9.63611C11.1685 9.02357 11.2477 8.01557 10.6992 7.30873L10.5961 7.17582C9.94007 6.33023 8.62319 6.47205 8.1622 7.43792C8.09708 7.57436 7.90287 7.57436 7.83776 7.43792C7.37677 6.47205 6.05989 6.33023 5.40383 7.17582L5.30071 7.30873C4.7523 8.01557 4.83148 9.02357 5.48354 9.63611Z" fill="white" stroke="white"/>
</svg>
