<svg width="16" height="16" viewBox="0 0 16 16" fill="none" xmlns="http://www.w3.org/2000/svg">
<path d="M15.9732 5.67407C15.9227 5.53061 15.8309 5.40459 15.709 5.31131C15.587 5.21803 15.4401 5.1615 15.2861 5.14856L10.7403 4.49755L8.70306 0.44246C8.63764 0.309849 8.5355 0.198011 8.40833 0.119757C8.28116 0.0415039 8.13412 0 7.98404 0C7.83396 0 7.68691 0.0415039 7.55974 0.119757C7.43258 0.198011 7.33043 0.309849 7.26502 0.44246L5.22779 4.48971L0.681976 5.14856C0.534115 5.16919 0.395105 5.2301 0.280722 5.32438C0.166339 5.41865 0.0811613 5.54252 0.0348564 5.68192C-0.00752995 5.81814 -0.0113336 5.96312 0.0238536 6.1013C0.0590407 6.23949 0.13189 6.36565 0.234585 6.46627L3.53409 9.60367L2.73518 14.0588C2.70666 14.2058 2.72159 14.3578 2.77822 14.4968C2.83485 14.6358 2.9308 14.756 3.05475 14.8431C3.17556 14.9279 3.31805 14.978 3.46622 14.9877C3.6144 14.9974 3.7624 14.9663 3.8936 14.898L7.98404 12.8038L12.0585 14.9059C12.1706 14.968 12.2973 15.0004 12.426 15C12.5952 15.0006 12.7603 14.9484 12.8973 14.851C13.0213 14.7638 13.1173 14.6436 13.1739 14.5046C13.2305 14.3657 13.2454 14.2137 13.2169 14.0666L12.418 9.61151L15.7175 6.47411C15.8329 6.37817 15.9181 6.25206 15.9634 6.11045C16.0086 5.96883 16.012 5.81751 15.9732 5.67407Z" fill="#67687D"/>
</svg>
