<svg width="16" height="17" viewBox="0 0 16 17" fill="none" xmlns="http://www.w3.org/2000/svg">
<path d="M0 5C0 2.79086 1.79086 1 4 1H12C14.2091 1 16 2.79086 16 5V13C16 15.2091 14.2091 17 12 17H4C1.79086 17 0 15.2091 0 13V5Z" fill="#5297FF"/>
<path d="M6 6H8.10612C8.6449 6 9.09388 6.18857 9.45306 6.56571C9.81769 6.94286 10 7.41143 10 7.97143C10 8.52571 9.81769 8.99429 9.45306 9.37714C9.09388 9.75429 8.6449 9.94286 8.10612 9.94286H6.93878V12H6V6ZM6.93878 9.01714H8.10612C8.38367 9.01714 8.61224 8.92 8.79184 8.72571C8.97143 8.52571 9.06122 8.27429 9.06122 7.97143C9.06122 7.66857 8.97143 7.42 8.79184 7.22571C8.61224 7.02571 8.38367 6.92571 8.10612 6.92571H6.93878V9.01714Z" fill="white"/>
</svg>
