<?xml version="1.0" standalone="no"?>
<!DOCTYPE svg PUBLIC "-//W3C//DTD SVG 20010904//EN"
 "http://www.w3.org/TR/2001/REC-SVG-20010904/DTD/svg10.dtd">
<svg version="1.0" xmlns="http://www.w3.org/2000/svg"
 width="616.000000pt" height="405.000000pt" viewBox="0 0 616.000000 405.000000"
 preserveAspectRatio="xMidYMid meet">

<g transform="translate(0.000000,405.000000) scale(0.100000,-0.100000)"
fill="#000000" stroke="none">
<path d="M2951 3739 c-67 -10 -128 -36 -152 -65 -12 -14 -14 -126 -17 -711
l-3 -693 -688 0 -689 0 -31 -25 c-48 -41 -66 -103 -66 -230 0 -126 16 -183 66
-231 l30 -29 690 -3 689 -2 0 -673 c0 -513 3 -678 13 -697 6 -14 35 -36 62
-50 45 -22 65 -25 199 -29 160 -4 245 10 296 49 l25 19 3 690 2 691 676 0
c772 0 726 -5 771 84 22 43 27 68 31 157 5 128 -12 199 -58 244 l-31 30 -692
5 -692 5 -5 693 -5 694 -31 28 c-20 17 -53 32 -85 39 -76 17 -232 22 -308 10z"/>
</g>
</svg>
