<svg width="24" height="24" viewBox="0 0 24 24" fill="none" xmlns="http://www.w3.org/2000/svg">
<path d="M20.9698 9.38333C20.913 9.22193 20.8098 9.08017 20.6726 8.97523C20.5354 8.87029 20.3701 8.80668 20.1969 8.79213L15.0828 8.05974L12.7909 3.49777C12.7173 3.34858 12.6024 3.22276 12.4594 3.13473C12.3163 3.04669 12.1509 3 11.982 3C11.8132 3 11.6478 3.04669 11.5047 3.13473C11.3616 3.22276 11.2467 3.34858 11.1731 3.49777L8.88126 8.05092L3.76722 8.79213C3.60088 8.81534 3.44449 8.88387 3.31581 8.98992C3.18713 9.09598 3.09131 9.23533 3.03921 9.39216C2.99153 9.54541 2.98725 9.70851 3.02684 9.86397C3.06642 10.0194 3.14838 10.1614 3.26391 10.2746L6.97586 13.8041L6.07708 18.8161C6.04499 18.9816 6.06179 19.1525 6.1255 19.3089C6.1892 19.4653 6.29715 19.6004 6.43659 19.6985C6.5725 19.7939 6.7328 19.8502 6.8995 19.8611C7.0662 19.872 7.2327 19.8371 7.3803 19.7603L11.982 17.4043L16.5658 19.7691C16.6919 19.839 16.8344 19.8755 16.9792 19.875C17.1696 19.8757 17.3553 19.817 17.5095 19.7073C17.649 19.6093 17.7569 19.4741 17.8206 19.3177C17.8843 19.1614 17.9011 18.9904 17.869 18.8249L16.9703 13.8129L20.6822 10.2834C20.812 10.1754 20.9079 10.0336 20.9588 9.87425C21.0097 9.71493 21.0135 9.5447 20.9698 9.38333Z" fill="#F3CC41"/>
</svg>
